<svg width="14" height="11" viewBox="0 0 14 11" fill="none" xmlns="http://www.w3.org/2000/svg">
<path d="M4.31002 8.46835L1.41835 5.57668C1.26254 5.42087 1.05121 5.33333 0.83085 5.33333C0.610495 5.33333 0.399165 5.42087 0.24335 5.57668C0.0875358 5.7325 0 5.94383 0 6.16418C0 6.27329 0.0214908 6.38133 0.0632449 6.48214C0.104999 6.58294 0.166199 6.67453 0.24335 6.75168L3.72668 10.235C4.05168 10.56 4.57668 10.56 4.90168 10.235L13.7184 1.41835C13.8742 1.26254 13.9617 1.05121 13.9617 0.830851C13.9617 0.610495 13.8742 0.399165 13.7184 0.243351C13.5625 0.087536 13.3512 0 13.1308 0C12.9105 0 12.6992 0.087536 12.5434 0.243351L4.31002 8.46835Z" fill="#E4E4E4"/>
</svg>
