<svg aria-hidden="true" style="position: absolute; width: 0; height: 0; overflow: hidden;" version="1.1" xmlns="http://www.w3.org/2000/svg" xmlns:xlink="http://www.w3.org/1999/xlink">
<defs>

<symbol id="arrow" viewBox="0 0 43 16" strokeWidth="2">
<path d="M42.7071 8.7071C43.0976 8.31658 43.0976 7.68341 42.7071 7.29289L36.3431 0.928929C35.9526 0.538405 35.3195 0.538405 34.9289 0.928929C34.5384 1.31945 34.5384 1.95262 34.9289 2.34314L40.5858 8L34.9289 13.6569C34.5384 14.0474 34.5384 14.6805 34.9289 15.0711C35.3195 15.4616 35.9526 15.4616 36.3431 15.0711L42.7071 8.7071ZM8.74228e-08 9L42 9L42 7L-8.74228e-08 7L8.74228e-08 9Z"/>
</symbol>
<symbol id="tiktok" viewBox="0 0 24 24">
<path d="M16.6002 5.82C15.9166 5.03962 15.5399 4.03743 15.5402 3H12.4502V15.4C12.4263 16.071 12.143 16.7066 11.6599 17.1729C11.1768 17.6393 10.5316 17.8999 9.86016 17.9C8.44016 17.9 7.26016 16.74 7.26016 15.3C7.26016 13.58 8.92016 12.29 10.6302 12.82V9.66C7.18016 9.2 4.16016 11.88 4.16016 15.3C4.16016 18.63 6.92016 21 9.85016 21C12.9902 21 15.5402 18.45 15.5402 15.3V9.01C16.7932 9.90985 18.2975 10.3926 19.8402 10.39V7.3C19.8402 7.3 17.9602 7.39 16.6002 5.82Z"/>
</symbol>
<symbol id="facebook" viewBox="0 0 24 24">
<path d="M22 12C22 6.48 17.52 2 12 2C6.48 2 2 6.48 2 12C2 16.84 5.44 20.87 10 21.8V15H8V12H10V9.5C10 7.57 11.57 6 13.5 6H16V9H14C13.45 9 13 9.45 13 10V12H16V15H13V21.95C18.05 21.45 22 17.19 22 12Z"/>
</symbol>
<symbol id="instagram" viewBox="0 0 24 24">
<path d="M3 11C3 7.229 3 5.343 4.172 4.172C5.343 3 7.229 3 11 3H13C16.771 3 18.657 3 19.828 4.172C21 5.343 21 7.229 21 11V13C21 16.771 21 18.657 19.828 19.828C18.657 21 16.771 21 13 21H11C7.229 21 5.343 21 4.172 19.828C3 18.657 3 16.771 3 13V11Z" stroke="black" stroke-width="2"/>
<path d="M16.5 9C17.3284 9 18 8.32843 18 7.5C18 6.67157 17.3284 6 16.5 6C15.6716 6 15 6.67157 15 7.5C15 8.32843 15.6716 9 16.5 9Z" fill="black"/>
<path d="M12 15C13.6569 15 15 13.6569 15 12C15 10.3431 13.6569 9 12 9C10.3431 9 9 10.3431 9 12C9 13.6569 10.3431 15 12 15Z" stroke="black" stroke-width="2"/>
</symbol>

<symbol id='cart' viewBox="0 0 24 24">
	<path d="M19 7H16V6C16 4.93913 15.5786 3.92172 14.8284 3.17157C14.0783 2.42143 13.0609 2 12 2C10.9391 2 9.92172 2.42143 9.17157 3.17157C8.42143 3.92172 8 4.93913 8 6V7H5C4.73478 7 4.48043 7.10536 4.29289 7.29289C4.10536 7.48043 4 7.73478 4 8V19C4 19.7956 4.31607 20.5587 4.87868 21.1213C5.44129 21.6839 6.20435 22 7 22H17C17.7956 22 18.5587 21.6839 19.1213 21.1213C19.6839 20.5587 20 19.7956 20 19V8C20 7.73478 19.8946 7.48043 19.7071 7.29289C19.5196 7.10536 19.2652 7 19 7ZM10 6C10 5.46957 10.2107 4.96086 10.5858 4.58579C10.9609 4.21071 11.4696 4 12 4C12.5304 4 13.0391 4.21071 13.4142 4.58579C13.7893 4.96086 14 5.46957 14 6V7H10V6ZM18 19C18 19.2652 17.8946 19.5196 17.7071 19.7071C17.5196 19.8946 17.2652 20 17 20H7C6.73478 20 6.48043 19.8946 6.29289 19.7071C6.10536 19.5196 6 19.2652 6 19V9H8V10C8 10.2652 8.10536 10.5196 8.29289 10.7071C8.48043 10.8946 8.73478 11 9 11C9.26522 11 9.51957 10.8946 9.70711 10.7071C9.89464 10.5196 10 10.2652 10 10V9H14V10C14 10.2652 14.1054 10.5196 14.2929 10.7071C14.4804 10.8946 14.7348 11 15 11C15.2652 11 15.5196 10.8946 15.7071 10.7071C15.8946 10.5196 16 10.2652 16 10V9H18V19Z" />
</symbol>

<symbol id="account" viewBox="0 0 24 24">
<path d="M4 21V20C4 16.6863 6.68629 14 10 14H14C17.3137 14 20 16.6863 20 20V21" stroke="#222222" stroke-width="2" stroke-linecap="round" fill="transparent"/>
<path d="M12 11C9.79086 11 8 9.20914 8 7C8 4.79086 9.79086 3 12 3C14.2091 3 16 4.79086 16 7C16 9.20914 14.2091 11 12 11Z" stroke="black" stroke-width="2" fill="transparent" stroke-linecap="round"/></symbol>

<symbol id="like" viewBox="0 0 24 24">
<path d="M7.5 4C4.4625 4 2 6.4625 2 9.5C2 15 8.5 20 12 21.163C15.5 20 22 15 22 9.5C22 6.4625 19.5375 4 16.5 4C14.64 4 12.995 4.9235 12 6.337C11.4928 5.6146 10.8191 5.02505 10.0358 4.61824C9.25245 4.21144 8.38265 3.99938 7.5 4Z"   stroke-width="2" stroke-linecap="round" stroke-linejoin="round"/>

</symbol>

<symbol viewBox="0 0 24 24" id="search">
<path d="M16.02 17.6104C14.2115 19.0142 11.9361 19.676 9.65688 19.4611C7.37768 19.2463 5.266 18.171 3.7517 16.454C2.2374 14.7371 1.4343 12.5077 1.50587 10.2195C1.57744 7.93128 2.51831 5.75637 4.13695 4.13744C5.75588 2.5188 7.93079 1.57793 10.219 1.50636C12.5072 1.43478 14.7366 2.23789 16.4536 3.75219C18.1705 5.26649 19.2458 7.37816 19.4606 9.65737C19.6755 11.9366 19.0137 14.212 17.61 16.0204L22.17 20.5804C22.318 20.7179 22.4263 20.8929 22.4833 21.0867C22.5403 21.2806 22.544 21.4863 22.494 21.682C22.4439 21.8778 22.342 22.0565 22.1989 22.1992C22.0558 22.3419 21.8769 22.4434 21.681 22.4929C21.4854 22.5431 21.2799 22.5396 21.0862 22.4828C20.8924 22.4261 20.7176 22.3182 20.58 22.1704L16.02 17.6104ZM17.25 10.5004C17.2633 9.60585 17.0986 8.71753 16.7655 7.88717C16.4324 7.0568 15.9375 6.30097 15.3096 5.66362C14.6816 5.02628 13.9333 4.52016 13.108 4.1747C12.2827 3.82924 11.3969 3.65133 10.5022 3.65133C9.60751 3.65133 8.72175 3.82924 7.89644 4.1747C7.07114 4.52016 6.32276 5.02628 5.69485 5.66362C5.06694 6.30097 4.57203 7.0568 4.23891 7.88717C3.90579 8.71753 3.74111 9.60585 3.75445 10.5004C3.78087 12.2726 4.50342 13.9633 5.766 15.2072C7.02857 16.4511 8.72981 17.1483 10.5022 17.1483C12.2746 17.1483 13.9758 16.4511 15.2384 15.2072C16.501 13.9633 17.2235 12.2726 17.25 10.5004Z" fill="black"/>

<symbol viewBox="0 0 32 33" id="refresh">
<path fill-rule="evenodd" clip-rule="evenodd" d="M29.8668 16.5C29.8668 14.679 29.5081 12.8758 28.8113 11.1935C28.1144 9.51108 27.093 7.98243 25.8054 6.69479C24.5177 5.40715 22.9891 4.38574 21.3067 3.68887C19.6243 2.99201 17.8211 2.63333 16.0001 2.63333V0.5C19.2162 0.500008 22.3576 1.46919 25.0146 3.28113C27.6716 5.09307 29.721 7.66367 30.8953 10.6576C32.0696 13.6516 32.3145 16.93 31.5978 20.0652C30.8812 23.2004 29.2364 26.0468 26.878 28.2333H32.0001V30.3667H23.4668V21.8333H25.6001V26.5053C26.9509 25.2128 28.0255 23.6597 28.7589 21.9399C29.4922 20.2202 29.8692 18.3696 29.8668 16.5ZM5.12014 4.76667H0.000143639V2.63333H8.53348V11.1667H6.40014V6.49467C4.40376 8.41036 3.0261 10.8795 2.44436 13.5845C1.86262 16.2895 2.1034 19.1067 3.13573 21.6737C4.16806 24.2408 5.94473 26.4403 8.23724 27.9895C10.5298 29.5386 13.2333 30.3665 16.0001 30.3667V32.5C12.7839 32.5004 9.64222 31.5316 6.98486 29.7198C4.3275 27.908 2.27784 25.3374 1.10324 22.3433C-0.0713507 19.3493 -0.316354 16.0707 0.400195 12.9353C1.11674 9.79994 2.76158 6.95328 5.12014 4.76667Z"/>
</symbol>


<symbol id="arrow-right" viewBox="0 0 83.0039 13.3223">
	<path  d="M0 5.66113L82 5.66113L82 7.66113L0 7.66113L0 5.66113ZM80.5859 6.66113L75.6362 1.71094C75.2402 1.31543 75.2402 0.693359 75.6362 0.296875C76.0322 -0.0986328 76.6543 -0.0986328 77.0503 0.296875L82.707 5.9541C83.103 6.34961 83.103 6.97266 82.707 7.36816L77.0503 13.0254C76.6543 13.4209 76.0322 13.4209 75.6362 13.0254C75.2402 12.6289 75.2402 12.0068 75.6362 11.6113L80.5859 6.66113Z"  />
</symbol>

<symbol  viewBox="0 0 83.0039 13.3223" id="arrow-left">
	<path  d="M83.0039 5.66113L1.00391 5.66113L1.00391 7.66113L83.0039 7.66113L83.0039 5.66113ZM2.41797 6.66113L7.36768 1.71094C7.76367 1.31543 7.76367 0.693359 7.36768 0.296875C6.97168 -0.0986328 6.34961 -0.0986328 5.95361 0.296875L0.296875 5.9541C-0.0991211 6.34961 -0.0991211 6.97266 0.296875 7.36816L5.95361 13.0254C6.34961 13.4209 6.97168 13.4209 7.36768 13.0254C7.76367 12.6289 7.76367 12.0068 7.36768 11.6113L2.41797 6.66113Z" />
</symbol>

<symbol  viewBox="0 0 17.4097 17.4102"  id="arrow-top-right">
	<path  d="M0 15.2891L12.2886 3L2.74268 3L2.74268 0L17.4097 0L17.4097 14.667L14.4102 14.667L14.4102 5.12109L2.12109 17.4102L0 15.2891Z"  />
</symbol>

<symbol  viewBox="0 0 16 16"  id="arrow-short">
	<path d="M16 8.5H1.95312L8.10156 14.6484L7.39844 15.3516L0.046875 8L7.39844 0.648438L8.10156 1.35156L1.95312 7.5H16V8.5Z"/>
</symbol>

<symbol id="chevron" viewBox="0 0 12 7">
	<path d="M1 1L6 6L11 1"  stroke-width="2" stroke-linecap="round" stroke-linejoin="round"/>
</symbol>

<symbol id="showpass" viewBox="0 0 24 24">
	<path d="M3 13C6.6 5 17.4 5 21 13" fill='transparent' stroke-width="1.5" stroke-linecap="round" stroke-linejoin="round"/>
<path d="M12 17C11.606 17 11.2159 16.9224 10.8519 16.7716C10.488 16.6209 10.1573 16.3999 9.87868 16.1213C9.6001 15.8427 9.37913 15.512 9.22836 15.1481C9.0776 14.7841 9 14.394 9 14C9 13.606 9.0776 13.2159 9.22836 12.8519C9.37913 12.488 9.6001 12.1573 9.87868 11.8787C10.1573 11.6001 10.488 11.3791 10.8519 11.2284C11.2159 11.0776 11.606 11 12 11C12.7956 11 13.5587 11.3161 14.1213 11.8787C14.6839 12.4413 15 13.2044 15 14C15 14.7956 14.6839 15.5587 14.1213 16.1213C13.5587 16.6839 12.7956 17 12 17Z" stroke-width="1.5" stroke-linecap="round" stroke-linejoin="round"/>
</symbol>

<symbol id="google" viewBox="0 0 21 20">
	<path d="M20.5 10.2222C20.5 9.39994 20.4319 8.79995 20.2845 8.17773H10.7039V11.8888H16.3275C16.2142 12.811 15.6019 14.1999 14.2413 15.1332L14.2222 15.2574L17.2515 17.5572L17.4613 17.5777C19.3888 15.8332 20.5 13.2666 20.5 10.2222Z" fill="#4285F4"/>
<path d="M10.7027 19.9998C13.4578 19.9998 15.7708 19.1109 17.4602 17.5776L14.2402 15.1331C13.3785 15.722 12.222 16.1331 10.7027 16.1331C8.0043 16.1331 5.71403 14.3887 4.89761 11.9775L4.77794 11.9875L1.62811 14.3764L1.58691 14.4886C3.26493 17.7553 6.71171 19.9998 10.7027 19.9998Z" fill="#34A853"/>
<path d="M4.89914 11.9782C4.68372 11.356 4.55904 10.6893 4.55904 10.0004C4.55904 9.31152 4.68372 8.64488 4.8878 8.02267L4.8821 7.89015L1.69278 5.46289L1.58843 5.51153C0.896838 6.8671 0.5 8.38934 0.5 10.0004C0.5 11.6115 0.896838 13.1337 1.58843 14.4893L4.89914 11.9782Z" fill="#FBBC05"/>
<path d="M10.7028 3.86663C12.6189 3.86663 13.9114 4.67773 14.6484 5.35555L17.5283 2.59999C15.7596 0.988889 13.4579 0 10.7028 0C6.71174 0 3.26494 2.24442 1.58691 5.51105L4.88629 8.02218C5.71405 5.61108 8.00433 3.86663 10.7028 3.86663Z" fill="#EB4335"/>
</symbol>

<symbol viewBox="0 0 32 22" id="truck"> 
	<path  d="M0 0L0 2L19 2L19 17L12.844 17C12.398 15.2812 10.852 14 9 14C7.14801 14 5.60199 15.2812 5.15601 17L4 17L4 12L2 12L2 19L5.15601 19C5.60199 20.7188 7.14801 22 9 22C10.852 22 12.398 20.7188 12.844 19L21.156 19C21.602 20.7188 23.148 22 25 22C26.852 22 28.398 20.7188 28.844 19L32 19L32 10.8438L31.937 10.6865L29.937 4.68652L29.72 4L21 4L21 0L0 0ZM1 4L1 6L10 6L10 4L1 4ZM21 6L28.281 6L30 11.125L30 17L28.844 17C28.398 15.2812 26.852 14 25 14C23.148 14 21.602 15.2812 21.156 17L21 17L21 6ZM2 8L2 10L8 10L8 8L2 8ZM9 16C10.117 16 11 16.8828 11 18C11 19.1172 10.117 20 9 20C7.883 20 7 19.1172 7 18C7 16.8828 7.883 16 9 16ZM25 16C26.117 16 27 16.8828 27 18C27 19.1172 26.117 20 25 20C23.883 20 23 19.1172 23 18C23 16.8828 23.883 16 25 16Z" />
</symbol>

<symbol viewBox="0 0 12 12" id="plus">
	<path  d="M6 0L6 12M0 6L12 6" />
</symbol>
<symbol id="minus" viewBox="0 0 12 1">
	<path  d="M0 0.5L12 0.5" />
</symbol>
<symbol id="trash"  viewBox="0 0 16 18">
	<path d="M3 18C2.45001 18 1.97934 17.8047 1.58801 17.4131C1.19666 17.0215 1.00067 16.5508 1 16L1 3L0 3L0 1L5 1L5 0L11 0L11 1L16 1L16 3L15 3L15 16C15 16.5498 14.8043 17.0215 14.413 17.4131C14.0217 17.8047 13.5507 18.001 13 18L3 18ZM13 3L3 3L3 16L13 16L13 3ZM5 14L7 14L7 5L5 5L5 14ZM9 14L11 14L11 5L9 5L9 14Z"  fill-rule="nonzero"/>
</symbol>


<symbol viewBox="0 0 22 24" id="home">
<path d="M0.333252 24V8L10.9999 0L21.6666 8V24H13.6666V14.6667H8.33325V24H0.333252Z" />
</symbol>

<symbol viewBox="0 0 28 28" id="ukrposhta">
	<path d="M2.00008 27.3337C1.6223 27.3337 1.30586 27.2057 1.05075 26.9497C0.795637 26.6937 0.667637 26.3772 0.666748 26.0003V15.3337C0.666748 14.9559 0.794748 14.6394 1.05075 14.3843C1.30675 14.1292 1.62319 14.0012 2.00008 14.0003H6.00008V8.66699C6.00008 6.44477 6.77786 4.55588 8.33341 3.00033C9.88897 1.44477 11.7779 0.666992 14.0001 0.666992H19.3334C21.5556 0.666992 23.4445 1.44477 25.0001 3.00033C26.5556 4.55588 27.3334 6.44477 27.3334 8.66699V27.3337H24.6667V23.3337H19.3334V26.0003C19.3334 26.3781 19.2054 26.695 18.9494 26.951C18.6934 27.207 18.377 27.3345 18.0001 27.3337H2.00008ZM10.0001 22.8003L16.6667 19.0003V16.667L10.0001 20.467L3.33341 16.667V19.0003L10.0001 22.8003ZM19.3334 20.667H24.6667V8.66699C24.6667 7.20033 24.1445 5.94477 23.1001 4.90033C22.0556 3.85588 20.8001 3.33366 19.3334 3.33366H14.0001C12.5334 3.33366 11.2779 3.85588 10.2334 4.90033C9.18897 5.94477 8.66675 7.20033 8.66675 8.66699V14.0003H18.0001C18.3779 14.0003 18.6947 14.1283 18.9507 14.3843C19.2067 14.6403 19.3343 14.9568 19.3334 15.3337V20.667ZM11.3334 11.3337V8.66699H22.0001V11.3337H11.3334Z" />
</symbol>

<symbol viewBox="0 0 16 19" id="novaposhta">
	<path fill-rule="evenodd" clip-rule="evenodd" d="M2.66667 5.68299V18.0003C2.66667 18.3539 2.52619 18.6931 2.27614 18.9431C2.02609 19.1932 1.68696 19.3337 1.33333 19.3337C0.979711 19.3337 0.640573 19.1932 0.390525 18.9431C0.140476 18.6931 0 18.3539 0 18.0003V2.00033C0.000123188 1.7264 0.0846104 1.45917 0.241972 1.23496C0.399334 1.01075 0.621933 0.840442 0.879498 0.747206C1.13706 0.653969 1.4171 0.642325 1.68151 0.713856C1.94593 0.785386 2.1819 0.93662 2.35733 1.14699L13.3333 14.3177V2.00033C13.3333 1.6467 13.4738 1.30757 13.7239 1.05752C13.9739 0.807468 14.313 0.666992 14.6667 0.666992C15.0203 0.666992 15.3594 0.807468 15.6095 1.05752C15.8595 1.30757 16 1.6467 16 2.00033V18.0003C15.9999 18.2742 15.9154 18.5415 15.758 18.7657C15.6007 18.9899 15.3781 19.1602 15.1205 19.2534C14.8629 19.3467 14.5829 19.3583 14.3185 19.2868C14.0541 19.2153 13.8181 19.064 13.6427 18.8537L2.66667 5.68299Z" />
</symbol>

<symbol  viewBox="0 0 32 32" id="card">
<path d="M25.5 6H6.5C4.567 6 3 7.567 3 9.5V22.5C3 24.433 4.567 26 6.5 26H25.5C27.433 26 29 24.433 29 22.5V9.5C29 7.567 27.433 6 25.5 6Z"  stroke-width="3" stroke-linecap="round" stroke-linejoin="round"/>
<path d="M3 12H29M8 18.75H11V20H8V18.75Z" stroke-width="3" stroke-linejoin="round"/>
</symbol>

<symbol viewBox="0 0 30 18"  id="receipt">
<path d="M20 9C20 9.98891 19.7068 10.9556 19.1573 11.7779C18.6079 12.6001 17.827 13.241 16.9134 13.6194C15.9998 13.9978 14.9945 14.0969 14.0245 13.9039C13.0546 13.711 12.1637 13.2348 11.4645 12.5355C10.7652 11.8363 10.289 10.9454 10.0961 9.97545C9.90315 9.00555 10.0022 8.00021 10.3806 7.08658C10.759 6.17295 11.3999 5.39206 12.2221 4.84265C13.0444 4.29325 14.0111 4 15 4C16.3261 4 17.5979 4.52678 18.5355 5.46447C19.4732 6.40215 20 7.67392 20 9ZM30 1V17C30 17.2652 29.8946 17.5196 29.7071 17.7071C29.5196 17.8946 29.2652 18 29 18H1C0.734784 18 0.48043 17.8946 0.292893 17.7071C0.105357 17.5196 0 17.2652 0 17V1C0 0.734784 0.105357 0.48043 0.292893 0.292893C0.48043 0.105357 0.734784 0 1 0H29C29.2652 0 29.5196 0.105357 29.7071 0.292893C29.8946 0.48043 30 0.734784 30 1ZM28 6.79375C26.8645 6.45801 25.8311 5.84351 24.9938 5.00623C24.1565 4.16895 23.542 3.1355 23.2062 2H6.79375C6.45801 3.1355 5.84351 4.16895 5.00623 5.00623C4.16895 5.84351 3.1355 6.45801 2 6.79375V11.2062C3.1355 11.542 4.16895 12.1565 5.00623 12.9938C5.84351 13.8311 6.45801 14.8645 6.79375 16H23.2062C23.542 14.8645 24.1565 13.8311 24.9938 12.9938C25.8311 12.1565 26.8645 11.542 28 11.2062V6.79375Z" />
</symbol>

<symbol id="paypal" viewBox="0 0 32 32">
<g clip-path="url(#clip0_1418_1356)">
<path d="M27.146 2.49126C25.4043 0.808398 22.2558 0.0869141 18.2279 0.0869141H6.5379C6.13938 0.0869266 5.75394 0.207448 5.45087 0.42681C5.1478 0.646173 4.94698 0.949986 4.88453 1.28363L0.0170258 27.4523C-0.0797242 27.9683 0.391651 28.4356 1.00865 28.4356H8.22565L10.0382 18.6904L9.9819 18.9955C10.111 18.3067 10.806 17.7986 11.629 17.7986H15.0585C21.7958 17.7986 27.0712 15.4789 28.6122 8.76856C28.6579 8.57009 28.6975 8.37693 28.7318 8.18821C28.5373 8.1009 28.5373 8.1009 28.7318 8.18821C29.1907 5.708 28.7287 4.01974 27.146 2.49126Z" fill="#27346A"/>
<path d="M12.7997 7.29475C12.997 7.21512 13.2127 7.17385 13.4313 7.17396H22.596C23.6813 7.17396 24.6935 7.23383 25.6185 7.36003C25.8774 7.39501 26.1349 7.43678 26.3907 7.48527C26.7532 7.55309 27.1115 7.63608 27.4644 7.73396C27.9192 7.8627 28.3427 8.01264 28.7319 8.18821C29.1907 5.70705 28.7287 4.01974 27.146 2.49126C25.4033 0.808398 22.2558 0.0869141 18.2279 0.0869141H6.5369C5.71378 0.0869141 5.01353 0.594888 4.88453 1.28363L0.0170265 27.4514C-0.0797235 27.9682 0.391651 28.4349 1.00765 28.4349H8.22565L11.986 8.22085C12.023 8.02216 12.1164 7.83406 12.2581 7.67274C12.3998 7.51142 12.5857 7.3817 12.7997 7.29475Z" fill="#27346A"/>
<path d="M28.612 8.76784C27.071 15.4772 21.7958 17.7979 15.0584 17.7979H11.6279C10.8049 17.7979 10.1098 18.306 9.9819 18.9948L7.72703 31.1119C7.64278 31.5635 8.05478 31.9727 8.59378 31.9727H14.6775C15.026 31.9726 15.3631 31.8672 15.628 31.6753C15.893 31.4834 16.0684 31.2176 16.1229 30.9258L16.1822 30.663L17.3288 24.5029L17.4027 24.1625C17.4571 23.8707 17.6326 23.605 17.8975 23.4131C18.1624 23.2212 18.4994 23.1157 18.8479 23.1156H19.7584C25.6518 23.1156 30.2664 21.086 31.6149 15.2163C32.1778 12.7633 31.8865 10.7153 30.3975 9.27677C29.9459 8.84106 29.385 8.48122 28.7317 8.1875C28.6963 8.37717 28.6579 8.56938 28.612 8.76784Z" fill="#2790C3"/>
<path d="M27.119 7.64313C26.8788 7.58365 26.6362 7.531 26.3918 7.48525C26.1359 7.43755 25.8784 7.39607 25.6197 7.36085C24.6937 7.2338 23.6822 7.17383 22.5959 7.17383H13.4323C13.2136 7.17341 12.9976 7.21504 12.8007 7.29558C12.5864 7.38226 12.4004 7.5119 12.2586 7.67327C12.1168 7.83464 12.0235 8.02287 11.9869 8.22167L10.0392 18.6903L9.98291 18.9955C10.111 18.3067 10.806 17.7986 11.6292 17.7986H15.0597C21.7969 17.7986 27.0722 15.4789 28.6132 8.76853C28.659 8.57007 28.6975 8.37775 28.7329 8.18819C28.3427 8.01357 27.9203 7.86268 27.4654 7.73478C27.3506 7.70253 27.2352 7.67197 27.1192 7.64313" fill="#1F264F"/>
</g>
<defs>
<clipPath id="clip0_1418_1356">
<rect width="32" height="32" fill="white"/>
</clipPath>
</defs>
</symbol>


<symbol viewBox="0 0 18 18" id="mastercard">
<rect  width="18.000000" height="18.000000" fill="#FFFFFF" fill-opacity="0"/>
	<rect  width="18.000000" height="18.000000" fill="#FFFFFF" fill-opacity="0"/>
	<path d="M1.5 2.45L16.5 2.45C17.32 2.45 18 3.12 18 3.95L18 14.04C18 14.87 17.32 15.54 16.5 15.54L1.5 15.54C0.67 15.54 0 14.87 0 14.04L0 3.95C0 3.12 0.67 2.45 1.5 2.45Z" fill="#3F3F4E" fill-opacity="1.000000" fill-rule="evenodd"/>
	<circle cx="6.545166" cy="9.000000" r="4.090909" fill="#EB001A" fill-opacity="1.000000"/>
	<circle cx="11.454590" cy="9.000000" r="4.090909" fill="#F79E1C" fill-opacity="1.000000"/>
	<path  d="M9 12.27C9.99 11.52 10.63 10.33 10.63 9C10.63 7.66 9.99 6.47 9 5.72C8 6.47 7.36 7.66 7.36 9C7.36 10.33 8 11.52 9 12.27Z" fill="#FF5F00" fill-opacity="1.000000" fill-rule="nonzero"/>
</symbol>


<symbol id="copy" viewBox="0 0 18 18">
<path d="M17.25 0H5.25C5.05109 0 4.86032 0.0790178 4.71967 0.21967C4.57902 0.360322 4.5 0.551088 4.5 0.75V4.5H0.75C0.551088 4.5 0.360322 4.57902 0.21967 4.71967C0.0790178 4.86032 0 5.05109 0 5.25V17.25C0 17.4489 0.0790178 17.6397 0.21967 17.7803C0.360322 17.921 0.551088 18 0.75 18H12.75C12.9489 18 13.1397 17.921 13.2803 17.7803C13.421 17.6397 13.5 17.4489 13.5 17.25V13.5H17.25C17.4489 13.5 17.6397 13.421 17.7803 13.2803C17.921 13.1397 18 12.9489 18 12.75V0.75C18 0.551088 17.921 0.360322 17.7803 0.21967C17.6397 0.0790178 17.4489 0 17.25 0ZM12 16.5H1.5V6H12V16.5ZM16.5 12H13.5V5.25C13.5 5.05109 13.421 4.86032 13.2803 4.71967C13.1397 4.57902 12.9489 4.5 12.75 4.5H6V1.5H16.5V12Z"/>
</symbol>

<symbol id="arrow-back"  viewBox="0 0 16 16">
	<path d="M16 8.5H1.95312L8.10156 14.6484L7.39844 15.3516L0.046875 8L7.39844 0.648438L8.10156 1.35156L1.95312 7.5H16V8.5Z" />
</symbol>


<symbol id="arrow-up-down" viewBox="0 0 28 22">
<path d="M14 14.0479L20.0953 20.3062L26.1905 14.0479M14 7.95266L7.90481 1.85742M7.90481 1.85742L1.80957 7.94809M7.90481 1.85742V20.1431M20.0953 1.85742V20.1431"  stroke-width="2" stroke-linecap="round" stroke-linejoin="round"/>
</symbol>

<symbol id="filters" viewBox="0 0 32 32">
<path d="M11.9999 19C12.8868 18.9998 13.7487 19.2944 14.45 19.8374C15.1513 20.3805 15.6522 21.1412 15.8739 22H26.9999C27.2498 21.9995 27.4908 22.0927 27.6755 22.261C27.8601 22.4294 27.9751 22.6608 27.9976 22.9096C28.0202 23.1585 27.9488 23.4068 27.7975 23.6057C27.6461 23.8045 27.4258 23.9395 27.1799 23.984L26.9999 24L15.8739 24.002C15.6529 24.8615 15.1523 25.6232 14.451 26.167C13.7497 26.7108 12.8874 27.0059 11.9999 27.0059C11.1124 27.0059 10.2501 26.7108 9.54879 26.167C8.84745 25.6232 8.34689 24.8615 8.12589 24.002L4.99989 24C4.75 24.0005 4.50899 23.9073 4.32432 23.739C4.13966 23.5706 4.02472 23.3392 4.00214 23.0904C3.97956 22.8415 4.05098 22.5932 4.20233 22.3943C4.35368 22.1955 4.574 22.0605 4.81989 22.016L4.99989 22H8.12589C8.34763 21.1412 8.84852 20.3805 9.54979 19.8374C10.2511 19.2944 11.1129 18.9998 11.9999 19ZM11.9999 21C11.4695 21 10.9608 21.2107 10.5857 21.5858C10.2106 21.9609 9.99989 22.4696 9.99989 23C9.99989 23.5304 10.2106 24.0391 10.5857 24.4142C10.9608 24.7893 11.4695 25 11.9999 25C12.5303 25 13.039 24.7893 13.4141 24.4142C13.7892 24.0391 13.9999 23.5304 13.9999 23C13.9999 22.4696 13.7892 21.9609 13.4141 21.5858C13.039 21.2107 12.5303 21 11.9999 21ZM19.9999 5C20.8868 4.99977 21.7487 5.29435 22.45 5.83741C23.1513 6.38047 23.6522 7.14121 23.8739 8H26.9999C27.2498 7.99954 27.4908 8.09266 27.6755 8.26102C27.8601 8.42938 27.9751 8.66077 27.9976 8.90964C28.0202 9.15851 27.9488 9.40682 27.7975 9.60566C27.6461 9.80451 27.4258 9.93948 27.1799 9.984L26.9999 10L23.8739 10.002C23.6529 10.8615 23.1523 11.6231 22.451 12.167C21.7497 12.7108 20.8874 13.0059 19.9999 13.0059C19.1124 13.0059 18.2501 12.7108 17.5488 12.167C16.8475 11.6231 16.3469 10.8615 16.1259 10.002L4.99989 10C4.75 10.0005 4.50899 9.90734 4.32432 9.73898C4.13966 9.57062 4.02472 9.33923 4.00214 9.09036C3.97956 8.84149 4.05098 8.59318 4.20233 8.39434C4.35368 8.19549 4.574 8.06052 4.81989 8.016L4.99989 8H16.1259C16.3476 7.14121 16.8485 6.38047 17.5498 5.83741C18.2511 5.29435 19.1129 4.99977 19.9999 5ZM19.9999 7C19.4695 7 18.9608 7.21071 18.5857 7.58579C18.2106 7.96086 17.9999 8.46957 17.9999 9C17.9999 9.53043 18.2106 10.0391 18.5857 10.4142C18.9608 10.7893 19.4695 11 19.9999 11C20.5303 11 21.039 10.7893 21.4141 10.4142C21.7892 10.0391 21.9999 9.53043 21.9999 9C21.9999 8.46957 21.7892 7.96086 21.4141 7.58579C21.039 7.21071 20.5303 7 19.9999 7Z" />
</symbol>


<symbol id="close" viewBox="0 0 16 16" >
<path d="M15.6456 0.366529C15.5333 0.254025 15.4 0.164768 15.2532 0.103869C15.1064 0.0429689 14.949 0.0116217 14.79 0.0116217C14.6311 0.0116217 14.4737 0.0429689 14.3269 0.103869C14.1801 0.164768 14.0467 0.254025 13.9344 0.366529L8 6.28884L2.06555 0.354393C1.9532 0.242036 1.81981 0.15291 1.67301 0.0921034C1.52621 0.0312965 1.36887 1.18387e-09 1.20997 0C1.05108 -1.18387e-09 0.893737 0.0312965 0.746936 0.0921034C0.600135 0.15291 0.466749 0.242036 0.354393 0.354393C0.242036 0.466749 0.15291 0.600135 0.0921034 0.746936C0.0312965 0.893737 -1.18387e-09 1.05108 0 1.20997C1.18387e-09 1.36887 0.0312965 1.52621 0.0921034 1.67301C0.15291 1.81981 0.242036 1.9532 0.354393 2.06555L6.28884 8L0.354393 13.9344C0.242036 14.0468 0.15291 14.1802 0.0921034 14.327C0.0312965 14.4738 0 14.6311 0 14.79C0 14.9489 0.0312965 15.1063 0.0921034 15.2531C0.15291 15.3999 0.242036 15.5333 0.354393 15.6456C0.466749 15.758 0.600135 15.8471 0.746936 15.9079C0.893737 15.9687 1.05108 16 1.20997 16C1.36887 16 1.52621 15.9687 1.67301 15.9079C1.81981 15.8471 1.9532 15.758 2.06555 15.6456L8 9.71116L13.9344 15.6456C14.0468 15.758 14.1802 15.8471 14.327 15.9079C14.4738 15.9687 14.6311 16 14.79 16C14.9489 16 15.1063 15.9687 15.2531 15.9079C15.3999 15.8471 15.5333 15.758 15.6456 15.6456C15.758 15.5333 15.8471 15.3999 15.9079 15.2531C15.9687 15.1063 16 14.9489 16 14.79C16 14.6311 15.9687 14.4738 15.9079 14.327C15.8471 14.1802 15.758 14.0468 15.6456 13.9344L9.71116 8L15.6456 2.06555C16.1068 1.60439 16.1068 0.827692 15.6456 0.366529Z" />
</symbol>


<symbol viewBox="0 0 13.3333 12.6665" id="star">
	<defs/>
	<path  d="M2.55 12.66L3.63 7.98L0 4.83L4.8 4.41L6.66 0L8.53 4.41L13.33 4.83L9.69 7.98L10.78 12.66L6.66 10.18L2.55 12.66Z"  fill-opacity="1.000000" fill-rule="nonzero"/>
</symbol>


<symbol id="ruler" viewBox="0 0 20 18">
	<path d="M0.412563 9.34661C0.223034 9.45609 0.0847456 9.63636 0.0281117 9.84778C-0.0285221 10.0592 0.00113587 10.2845 0.110563 10.474L3.77856 16.8276C3.83277 16.9215 3.90494 17.0038 3.99094 17.0697C4.07695 17.1357 4.17511 17.1841 4.27981 17.2122C4.38452 17.2402 4.49373 17.2473 4.6012 17.2332C4.70867 17.219 4.8123 17.1838 4.90616 17.1296L19.5874 8.65361C19.6812 8.59941 19.7635 8.52724 19.8295 8.44124C19.8955 8.35523 19.9439 8.25707 19.9719 8.15236C20 8.04766 20.0071 7.93845 19.9929 7.83098C19.9788 7.72351 19.9436 7.61988 19.8894 7.52601L16.2214 1.17241C16.1672 1.07854 16.095 0.996265 16.009 0.930284C15.923 0.864303 15.8248 0.81591 15.7201 0.787866C15.6154 0.759822 15.5062 0.752678 15.3987 0.766842C15.2913 0.781005 15.1876 0.816199 15.0938 0.870413L0.412563 9.34661ZM1.95276 10.3634L15.2044 2.71261L18.0472 7.63661L17.0922 8.18801L16.0268 6.34221L15.312 6.75501L16.3774 8.60061L15.2844 9.23181L14.2188 7.38601L13.504 7.79881L14.5696 9.64441L13.4778 10.2748L12.4122 8.42901L11.6974 8.84181L12.763 10.6874L11.67 11.3186L10.1892 8.75401L9.47436 9.16661L10.9552 11.7312L9.86196 12.3624L8.79636 10.5166L8.08156 10.9294L9.14716 12.775L8.05536 13.4052L6.98996 11.5596L6.27516 11.9724L7.34056 13.818L6.24756 14.449L5.18196 12.6034L4.46716 13.0162L5.53276 14.8618L4.79556 15.2874L1.95276 10.3634Z" />
</symbol>


</defs>
</svg>

