<svg aria-hidden="true" style="position: absolute; width: 0; height: 0; overflow: hidden;" version="1.1" xmlns="http://www.w3.org/2000/svg" xmlns:xlink="http://www.w3.org/1999/xlink">
<defs>

<symbol id="arrow" viewBox="0 0 43 16" strokeWidth="2">
<path d="M42.7071 8.7071C43.0976 8.31658 43.0976 7.68341 42.7071 7.29289L36.3431 0.928929C35.9526 0.538405 35.3195 0.538405 34.9289 0.928929C34.5384 1.31945 34.5384 1.95262 34.9289 2.34314L40.5858 8L34.9289 13.6569C34.5384 14.0474 34.5384 14.6805 34.9289 15.0711C35.3195 15.4616 35.9526 15.4616 36.3431 15.0711L42.7071 8.7071ZM8.74228e-08 9L42 9L42 7L-8.74228e-08 7L8.74228e-08 9Z"/>
</symbol>
<symbol id="tiktok" viewBox="0 0 24 24">
<path d="M16.6002 5.82C15.9166 5.03962 15.5399 4.03743 15.5402 3H12.4502V15.4C12.4263 16.071 12.143 16.7066 11.6599 17.1729C11.1768 17.6393 10.5316 17.8999 9.86016 17.9C8.44016 17.9 7.26016 16.74 7.26016 15.3C7.26016 13.58 8.92016 12.29 10.6302 12.82V9.66C7.18016 9.2 4.16016 11.88 4.16016 15.3C4.16016 18.63 6.92016 21 9.85016 21C12.9902 21 15.5402 18.45 15.5402 15.3V9.01C16.7932 9.90985 18.2975 10.3926 19.8402 10.39V7.3C19.8402 7.3 17.9602 7.39 16.6002 5.82Z"/>
</symbol>
<symbol id="facebook" viewBox="0 0 24 24">
<path d="M22 12C22 6.48 17.52 2 12 2C6.48 2 2 6.48 2 12C2 16.84 5.44 20.87 10 21.8V15H8V12H10V9.5C10 7.57 11.57 6 13.5 6H16V9H14C13.45 9 13 9.45 13 10V12H16V15H13V21.95C18.05 21.45 22 17.19 22 12Z"/>
</symbol>
<symbol id="instagram" viewBox="0 0 24 24">
<path d="M3 11C3 7.229 3 5.343 4.172 4.172C5.343 3 7.229 3 11 3H13C16.771 3 18.657 3 19.828 4.172C21 5.343 21 7.229 21 11V13C21 16.771 21 18.657 19.828 19.828C18.657 21 16.771 21 13 21H11C7.229 21 5.343 21 4.172 19.828C3 18.657 3 16.771 3 13V11Z" stroke="black" stroke-width="2"/>
<path d="M16.5 9C17.3284 9 18 8.32843 18 7.5C18 6.67157 17.3284 6 16.5 6C15.6716 6 15 6.67157 15 7.5C15 8.32843 15.6716 9 16.5 9Z" fill="black"/>
<path d="M12 15C13.6569 15 15 13.6569 15 12C15 10.3431 13.6569 9 12 9C10.3431 9 9 10.3431 9 12C9 13.6569 10.3431 15 12 15Z" stroke="black" stroke-width="2"/>
</symbol>

<symbol id='cart' viewBox="0 0 24 24">
	<path d="M19 7H16V6C16 4.93913 15.5786 3.92172 14.8284 3.17157C14.0783 2.42143 13.0609 2 12 2C10.9391 2 9.92172 2.42143 9.17157 3.17157C8.42143 3.92172 8 4.93913 8 6V7H5C4.73478 7 4.48043 7.10536 4.29289 7.29289C4.10536 7.48043 4 7.73478 4 8V19C4 19.7956 4.31607 20.5587 4.87868 21.1213C5.44129 21.6839 6.20435 22 7 22H17C17.7956 22 18.5587 21.6839 19.1213 21.1213C19.6839 20.5587 20 19.7956 20 19V8C20 7.73478 19.8946 7.48043 19.7071 7.29289C19.5196 7.10536 19.2652 7 19 7ZM10 6C10 5.46957 10.2107 4.96086 10.5858 4.58579C10.9609 4.21071 11.4696 4 12 4C12.5304 4 13.0391 4.21071 13.4142 4.58579C13.7893 4.96086 14 5.46957 14 6V7H10V6ZM18 19C18 19.2652 17.8946 19.5196 17.7071 19.7071C17.5196 19.8946 17.2652 20 17 20H7C6.73478 20 6.48043 19.8946 6.29289 19.7071C6.10536 19.5196 6 19.2652 6 19V9H8V10C8 10.2652 8.10536 10.5196 8.29289 10.7071C8.48043 10.8946 8.73478 11 9 11C9.26522 11 9.51957 10.8946 9.70711 10.7071C9.89464 10.5196 10 10.2652 10 10V9H14V10C14 10.2652 14.1054 10.5196 14.2929 10.7071C14.4804 10.8946 14.7348 11 15 11C15.2652 11 15.5196 10.8946 15.7071 10.7071C15.8946 10.5196 16 10.2652 16 10V9H18V19Z" fill="#222222"/>
</symbol>

</defs>
</svg>